<?xml version="1.0" encoding="UTF-8"?>
<svg id="IMAGOTIPO_INVERTIDO" data-name="IMAGOTIPO INVERTIDO" xmlns="http://www.w3.org/2000/svg" viewBox="0 0 5902.54 1517.77">
  <defs>
    <style>
      .cls-1 {
        fill: #f7edda;
      }
    </style>
  </defs>
  <path id="isotipo" class="cls-1" d="M284.65,1517.76c-2.35-.24-7.16-1.1-11.39-4.77-5.91-5.13-8.27-13.65-6.39-22.15l126.58-513.87c1.19-4.83-1.63-16.49-9.84-16.04-122.8,6.74-244.81,15.55-367.39,26.31C7.34,988.01,0,982.05,0,972.96l.03-458.3c0-10.66,9.85-17.15,19.74-17.21,204.19-23.62,408.65-38.3,614.16-43.73l34.7-.92,43.54-.94,63.04-.91,104.19-.49c6.97-.03,13.26-2.11,17.17-7.68,4.79-15.82-17.13-24.62-29.97-32l-50.56-29.04-54.76-31.49-50.01-28.72-50.6-29.06-50-28.79c-6.19-3.56-11.86-6.97-16.98-10.14-10.11-6.26-13.55-8.8-15.38-13.38-1.53-3.83-1.3-7.51-.91-9.92,16.78-68.08,33.56-136.16,50.34-204.24.39-1.59,1.19-5.33,3.85-9.4C643.11-1.05,672.9-.07,684.03.15c37.42.74,212.88-.02,455.88-.15,2.73-.03,14.3.13,23.95,8.99,6.92,6.35,9.25,13.85,10.04,17.03l104.3,423.29c1.85,7.52,6.87,11.86,14.77,12.26,162.51,8.18,323.96,20.54,485.91,36.37,8.51.83,18.04,5.88,18.04,15.88l.07,459.14c0,8.38-6.68,14.94-15.19,14.09-121.25-12.17-242.08-21.7-363.74-28.37-3.41-.19-6.69.68-9.35,1.57-.52.38-1.07.9-1.55,1.58-1.94,2.74-1.21,6.04-1.02,6.82,1.51,6.09,123.5,495.23,128.61,522.22.72,3.83,2.74,14.48-3.17,21.13-4.53,5.1-12.02,5.9-17.6,5.77-151.8,0-303.61,0-455.41,0-5.03.04-9.46-2.23-13.05-4.15-11.27-6.05-15.26-16.17-18.18-28.05-40.38-163.95-80.76-327.9-121.13-491.85-1.35-5.22-2.7-10.43-4.06-15.65-.09-.35-.66-1.09-1.41-1.16-.88-.09-1.62.85-1.86,1.18-42.17,171.62-84.35,343.24-126.52,514.87-2.92,11.83-15.3,24.73-28.21,24.62-153.17.07-306.34.14-459.5.21Z"/>
  <g>
    <path class="cls-1" d="M2949.11,1323.08h-188.97c-12.19,0-19.81-3.05-27.43-13.72l-202.69-275.84c-15.24,1.52-28.96,1.52-44.19,1.52h-114.3v265.17c0,13.72-9.14,22.86-22.86,22.86h-140.21c-13.72,0-22.86-9.14-22.86-22.86V218.21c0-13.72,9.14-22.86,22.86-22.86h140.21c13.72,0,22.86,9.14,22.86,22.86v669.02h80.77c172.21,0,284.98-100.58,303.27-272.79,1.52-15.24,9.14-22.86,22.86-22.86h140.21c13.72,0,24.38,7.62,22.86,22.86-16.76,166.11-96.01,295.65-222.5,364.23l243.83,316.99c12.19,15.24,4.57,27.43-13.72,27.43Z"/>
    <path class="cls-1" d="M3711.1,611.39l-18.29,114.3c-3.05,15.24-12.19,21.34-27.43,18.29-25.91-4.57-56.39-7.62-86.87-7.62-129.54,0-220.98,88.39-220.98,220.98v342.89c0,13.72-9.14,22.86-22.86,22.86h-140.21c-13.72,0-22.86-9.14-22.86-22.86v-512.05c0-38.1-19.81-56.39-64.01-56.39-10.67,0-32,3.05-42.67,4.57-15.24,1.52-27.43-3.05-27.43-18.29v-106.68c0-13.72,4.57-22.86,18.29-27.43,28.96-9.14,64.01-15.24,92.96-15.24,88.39,0,153.92,41.15,178.3,109.73,64.01-70.1,150.87-109.73,252.98-109.73,39.62,0,83.82,6.1,114.3,15.24,13.72,4.57,18.29,13.72,16.76,27.43Z"/>
    <path class="cls-1" d="M3825.39,933.81c0-233.17,158.49-388.61,394.71-388.61s384.04,152.4,384.04,382.52c0,19.81-1.52,41.15-3.05,60.96-3.05,13.72-12.19,19.81-25.91,19.81h-562.35c27.43,100.58,112.77,164.59,222.5,164.59,62.48,0,117.35-21.34,144.78-53.34,9.14-9.14,16.76-13.72,28.96-13.72h150.87c16.76,0,25.91,10.67,18.29,25.91-51.82,115.82-187.45,190.5-347.47,190.5-242.31,0-405.38-155.45-405.38-388.61ZM4415.17,877.43c-3.05-106.68-76.2-182.88-190.5-182.88s-201.16,73.15-216.4,182.88h406.9Z"/>
    <path class="cls-1" d="M4756.53,301.37c0-59.44,51.82-106.68,115.82-106.68s115.82,47.24,115.82,106.68-53.34,106.68-115.82,106.68-115.82-47.24-115.82-106.68ZM4779.39,1153.27v-562.35c0-13.72,9.14-22.86,22.86-22.86h140.21c13.72,0,22.86,9.14,22.86,22.86v512.05c0,33.53,21.34,56.39,53.34,56.39,18.29,0,32-1.52,56.39-6.1,15.24-3.05,25.91,3.05,27.43,18.29l12.19,105.15c1.52,13.72-4.57,22.86-18.29,27.43-38.1,12.19-70.1,18.29-103.63,18.29-128.01,0-213.36-67.05-213.36-169.16Z"/>
    <path class="cls-1" d="M5213.71,1080.11c-1.52-15.24,7.62-24.38,22.86-24.38l128.01,1.52c13.72,0,19.81,6.1,24.38,19.81,21.34,64.01,85.34,102.11,187.45,102.11,88.39,0,147.82-33.53,147.82-82.29,0-161.54-484.62-9.14-484.62-320.03,0-138.68,128.01-231.64,321.56-231.64,178.3,0,312.41,86.87,332.23,216.4,1.52,15.24-7.62,24.38-22.86,24.38h-128.01c-13.72,0-21.34-4.57-24.38-13.72-18.29-54.86-82.29-91.44-156.97-91.44-82.29,0-137.16,30.48-137.16,77.72,0,173.73,478.53,12.19,478.53,326.13,0,143.25-131.06,237.74-326.13,237.74-207.26,0-341.37-89.91-362.71-242.31Z"/>
  </g>
</svg>