<?xml version="1.0" encoding="UTF-8"?>
<svg id="ISOTIPO" xmlns="http://www.w3.org/2000/svg" viewBox="0 0 2914.91 2461.98">
  <defs>
    <style>
      .cls-1 {
        fill: #ea5422;
      }
    </style>
  </defs>
  <path id="isotipo" class="cls-1" d="M461.73,2461.96c-3.81-.39-11.61-1.78-18.47-7.73-9.58-8.32-13.41-22.14-10.37-35.93l205.33-833.56c1.93-7.83-2.64-26.75-15.96-26.02-199.19,10.94-397.1,25.23-595.95,42.67C11.91,1602.66,0,1592.99,0,1578.24l.05-743.41c0-17.3,15.98-27.82,32.02-27.92,331.22-38.32,662.87-62.12,996.24-70.93l56.29-1.49,70.63-1.52,102.26-1.47,169-.79c11.31-.05,21.51-3.43,27.85-12.46,7.76-25.66-27.79-39.94-48.62-51.9l-82.01-47.11-88.83-51.08-81.12-46.59-82.08-47.14-81.11-46.7c-10.03-5.77-19.23-11.3-27.55-16.45-16.4-10.15-21.99-14.28-24.95-21.71-2.48-6.21-2.11-12.18-1.47-16.1,27.22-110.43,54.43-220.87,81.65-331.3.64-2.58,1.93-8.64,6.24-15.24C1043.18-1.7,1091.51-.12,1109.57.24c60.7,1.2,345.31-.04,739.48-.24,4.43-.06,23.19.21,38.85,14.58,11.22,10.3,15,22.47,16.28,27.62l169.18,686.62c3.01,12.2,11.15,19.25,23.96,19.89,263.61,13.27,525.5,33.31,788.2,59,13.81,1.35,29.26,9.54,29.26,25.75l.12,744.78c0,13.6-10.83,24.24-24.64,22.85-196.68-19.74-392.68-35.19-590.03-46.02-5.54-.3-10.85,1.1-15.16,2.54-.84.62-1.74,1.46-2.52,2.57-3.14,4.45-1.96,9.8-1.65,11.05,2.45,9.88,200.33,803.32,208.63,847.1,1.18,6.2,4.45,23.49-5.14,34.27-7.36,8.27-19.49,9.57-28.56,9.36-246.24,0-492.48,0-738.72,0-8.15.07-15.35-3.61-21.16-6.73-18.29-9.81-24.75-26.23-29.49-45.51-65.5-265.94-131-531.89-196.49-797.83-2.19-8.46-4.39-16.93-6.58-25.39-.15-.57-1.07-1.77-2.29-1.89-1.42-.14-2.62,1.38-3.01,1.91-68.41,278.39-136.82,556.78-205.23,835.16-4.73,19.19-24.81,40.11-45.76,39.93-248.45.11-496.91.23-745.36.34Z"/>
</svg>