<svg width="720" height="980" viewBox="0 0 720 980" fill="none" xmlns="http://www.w3.org/2000/svg">
  <rect width="720" height="980" rx="42" fill="#F7EDDA"/>
  <rect x="44" y="44" width="632" height="892" rx="30" fill="#2E4B3C"/>
  <text x="82" y="116" fill="#F7EDDA" font-family="Arial, sans-serif" font-size="38" font-weight="700">Guia provisoria</text>
  <text x="82" y="162" fill="#F7EDDA" fill-opacity="0.72" font-family="Arial, sans-serif" font-size="24">Certificado de alumno regular</text>
  <rect x="82" y="220" width="556" height="160" rx="24" fill="#F7EDDA" fill-opacity="0.13"/>
  <circle cx="132" cy="272" r="24" fill="#F0531C"/>
  <text x="124" y="281" fill="#F7EDDA" font-family="Arial, sans-serif" font-size="26" font-weight="700">1</text>
  <text x="178" y="266" fill="#F7EDDA" font-family="Arial, sans-serif" font-size="27" font-weight="700">Entra al portal UADE</text>
  <text x="178" y="306" fill="#F7EDDA" fill-opacity="0.72" font-family="Arial, sans-serif" font-size="22">Busca la seccion de tramites o certificados.</text>
  <rect x="82" y="420" width="556" height="160" rx="24" fill="#F7EDDA" fill-opacity="0.13"/>
  <circle cx="132" cy="472" r="24" fill="#FFA74F"/>
  <text x="124" y="481" fill="#2E4B3C" font-family="Arial, sans-serif" font-size="26" font-weight="700">2</text>
  <text x="178" y="466" fill="#F7EDDA" font-family="Arial, sans-serif" font-size="27" font-weight="700">Descarga el PDF</text>
  <text x="178" y="506" fill="#F7EDDA" fill-opacity="0.72" font-family="Arial, sans-serif" font-size="22">Selecciona alumno regular y guarda el archivo.</text>
  <rect x="82" y="620" width="556" height="160" rx="24" fill="#F7EDDA" fill-opacity="0.13"/>
  <circle cx="132" cy="672" r="24" fill="#F7EDDA"/>
  <text x="124" y="681" fill="#2E4B3C" font-family="Arial, sans-serif" font-size="26" font-weight="700">3</text>
  <text x="178" y="666" fill="#F7EDDA" font-family="Arial, sans-serif" font-size="27" font-weight="700">Subilo en Kreis</text>
  <text x="178" y="706" fill="#F7EDDA" fill-opacity="0.72" font-family="Arial, sans-serif" font-size="22">Volve a esta pantalla y toca el recuadro.</text>
  <rect x="164" y="834" width="392" height="42" rx="21" fill="#F7EDDA"/>
  <text x="230" y="863" fill="#2E4B3C" font-family="Arial, sans-serif" font-size="22" font-weight="700">Placeholder de imagen final</text>
</svg>
