<svg preserveAspectRatio="none" width="100%" height="100%" overflow="visible" style="display: block;" viewBox="0 0 173 173" fill="none" xmlns="http://www.w3.org/2000/svg">
<g id="Frame">
<path id="Vector" d="M86.5 16.2188C72.5997 16.2188 59.0115 20.3407 47.4538 28.0633C35.8961 35.7859 26.888 46.7623 21.5686 59.6045C16.2492 72.4467 14.8574 86.578 17.5692 100.211C20.281 113.844 26.9746 126.367 36.8037 136.196C46.6327 146.025 59.1556 152.719 72.7888 155.431C86.422 158.143 100.553 156.751 113.395 151.431C126.238 146.112 137.214 137.104 144.937 125.546C152.659 113.988 156.781 100.4 156.781 86.5C156.762 67.8663 149.351 50.0014 136.175 36.8254C122.999 23.6494 105.134 16.2384 86.5 16.2188ZM117.356 74.1062L79.5124 111.95C79.0103 112.453 78.4141 112.851 77.7578 113.123C77.1015 113.395 76.398 113.535 75.6875 113.535C74.977 113.535 74.2735 113.395 73.6172 113.123C72.9609 112.851 72.3647 112.453 71.8626 111.95L55.6438 95.7312C54.6294 94.7167 54.0595 93.3409 54.0595 91.9062C54.0595 90.4716 54.6294 89.0958 55.6438 88.0813C56.6583 87.0669 58.0341 86.497 59.4688 86.497C60.9034 86.497 62.2792 87.0669 63.2937 88.0813L75.6875 100.482L109.706 66.4563C110.209 65.954 110.805 65.5556 111.461 65.2837C112.117 65.0119 112.821 64.872 113.531 64.872C114.242 64.872 114.945 65.0119 115.601 65.2837C116.258 65.5556 116.854 65.954 117.356 66.4563C117.858 66.9586 118.257 67.5549 118.529 68.2112C118.801 68.8675 118.941 69.5709 118.941 70.2812C118.941 70.9916 118.801 71.695 118.529 72.3513C118.257 73.0076 117.858 73.6039 117.356 74.1062Z" fill="var(--fill-0, #FFA74F)"/>
</g>
</svg>
