<svg preserveAspectRatio="none" width="100%" height="100%" overflow="visible" style="display: block;" viewBox="0 0 114 34.6572" fill="none" xmlns="http://www.w3.org/2000/svg">
<g id="Group">
<path id="Vector" d="M23.4171 34.6569H17.6213C17.2474 34.6569 17.0137 34.5632 16.78 34.2355L10.5635 25.7635C10.096 25.8102 9.67525 25.8102 9.20815 25.8102H5.70253V33.9545C5.70253 34.3759 5.4222 34.6566 5.0014 34.6566H0.701119C0.280322 34.6566 0 34.3759 0 33.9545V0.722545C0 0.301156 0.280322 0.0204355 0.701119 0.0204355H5.0014C5.4222 0.0204355 5.70253 0.301156 5.70253 0.722545V21.2704H8.17977C13.4615 21.2704 16.9202 18.1813 17.4812 12.8921C17.5278 12.4241 17.7615 12.19 18.1823 12.19H22.4826C22.9034 12.19 23.2303 12.4241 23.1837 12.8921C22.6696 17.9939 20.239 21.9726 16.3595 24.0789L23.8379 33.8147C24.2118 34.2828 23.978 34.6572 23.4171 34.6572V34.6569Z" fill="var(--fill-0, #F0531C)"/>
<path id="Vector_2" d="M46.7876 12.7983L46.2266 16.3088C46.1331 16.7769 45.8528 16.9642 45.3853 16.8706C44.5907 16.7302 43.6558 16.6365 42.721 16.6365C38.748 16.6365 35.9435 19.3513 35.9435 23.4236V33.9549C35.9435 34.3763 35.6632 34.657 35.2424 34.657H30.9421C30.5213 34.657 30.241 34.3763 30.241 33.9549V18.2281C30.241 17.0579 29.6334 16.4962 28.2777 16.4962C27.9505 16.4962 27.2963 16.5898 26.969 16.6365C26.5016 16.6832 26.1278 16.5429 26.1278 16.0748V12.7983C26.1278 12.3769 26.2679 12.0962 26.6887 11.9558C27.5769 11.6751 28.6519 11.4877 29.5398 11.4877C32.2508 11.4877 34.2606 12.7516 35.0083 14.8579C36.9716 12.7049 39.6356 11.4877 42.7673 11.4877C43.9825 11.4877 45.3381 11.6751 46.2729 11.9558C46.6937 12.0962 46.8339 12.3772 46.787 12.7983H46.7876Z" fill="var(--fill-0, #F0531C)"/>
<path id="Vector_3" d="M50.2928 22.7009C50.2928 15.5395 55.1538 10.7654 62.3987 10.7654C69.6437 10.7654 74.1774 15.4461 74.1774 22.5139C74.1774 23.1223 74.1307 23.7777 74.0838 24.3862C73.9903 24.8076 73.7099 24.9946 73.2891 24.9946H56.0417C56.883 28.0838 59.5004 30.0497 62.8658 30.0497C64.7821 30.0497 66.465 29.3943 67.3063 28.4115C67.5866 28.1308 67.8203 27.9901 68.1945 27.9901H72.8217C73.3358 27.9901 73.6164 28.3178 73.3827 28.7859C71.7934 32.3431 67.6335 34.6368 62.7257 34.6368C55.2939 34.6368 50.2925 29.8624 50.2925 22.7012L50.2928 22.7009ZM68.3816 20.9693C68.288 17.6928 66.0445 15.3524 62.5389 15.3524C59.0333 15.3524 56.3693 17.5991 55.9018 20.9693H68.3816Z" fill="var(--fill-0, #F0531C)"/>
<path id="Vector_4" d="M78.8512 3.27651C78.8512 1.4509 80.4406 0 82.4035 0C84.3664 0 85.9557 1.4509 85.9557 3.27651C85.9557 5.10212 84.3197 6.55302 82.4035 6.55302C80.4872 6.55302 78.8512 5.10212 78.8512 3.27651ZM79.5523 29.4413V12.1696C79.5523 11.7482 79.8327 11.4675 80.2535 11.4675H84.5537C84.9745 11.4675 85.2549 11.7482 85.2549 12.1696V27.8964C85.2549 28.9262 85.9094 29.6283 86.8908 29.6283C87.4518 29.6283 87.8723 29.5816 88.6203 29.441C89.0877 29.3473 89.415 29.5347 89.4616 30.0027L89.8355 33.2322C89.8821 33.6536 89.6953 33.9344 89.2745 34.0747C88.106 34.4491 87.1245 34.6365 86.0962 34.6365C82.1701 34.6365 79.5523 32.5771 79.5523 29.441V29.4413Z" fill="var(--fill-0, #F0531C)"/>
<path id="Vector_5" d="M92.8731 27.1943C92.8265 26.7262 93.1068 26.4455 93.5742 26.4455L97.5003 26.4922C97.9211 26.4922 98.1079 26.6796 98.248 27.1006C98.9025 29.0666 100.865 30.2368 103.997 30.2368C106.708 30.2368 108.531 29.207 108.531 27.7094C108.531 22.7479 93.6674 27.4287 93.6674 17.8802C93.6674 13.6208 97.5935 10.7657 103.53 10.7657C108.998 10.7657 113.111 13.4338 113.719 17.4121C113.766 17.8802 113.486 18.1609 113.018 18.1609H109.092C108.671 18.1609 108.438 18.0205 108.344 17.7395C107.783 16.0546 105.821 14.9311 103.53 14.9311C101.006 14.9311 99.3233 15.8672 99.3233 17.3181C99.3233 22.654 114 17.6925 114 27.3347C114 31.7344 109.98 34.6365 103.997 34.6365C97.6408 34.6365 93.5276 31.875 92.8731 27.1943Z" fill="var(--fill-0, #F0531C)"/>
</g>
</svg>
